<svg width="30" height="29" viewBox="0 0 30 29" fill="none" xmlns="http://www.w3.org/2000/svg">
<path d="M15 26.5836C9.87348 26.5836 7.31021 26.5836 5.71761 24.8141C4.125 23.0445 4.125 20.1964 4.125 14.5002C4.125 8.80412 4.125 5.95605 5.71761 4.18649C7.31021 2.41693 9.87348 2.41693 15 2.41693C20.1265 2.41693 22.6898 2.41693 24.2824 4.18649C25.875 5.95605 25.875 8.80412 25.875 14.5002C25.875 20.1964 25.875 23.0445 24.2824 24.8141C22.6898 26.5836 20.1265 26.5836 15 26.5836Z" stroke="#7D7D7D" stroke-width="2" stroke-linecap="round" stroke-linejoin="round"/>
<path d="M10.1665 3.02083V11.8733C10.1665 13.3802 10.1665 14.1337 10.6334 14.4034C11.5376 14.9257 13.2337 13.1833 14.0392 12.6586C14.5064 12.3544 14.7399 12.2022 14.9998 12.2022C15.2597 12.2022 15.4933 12.3544 15.9605 12.6586C16.7659 13.1833 18.4621 14.9257 19.3663 14.4034C19.8332 14.1337 19.8332 13.3802 19.8332 11.8733V3.02083" stroke="#7D7D7D" stroke-width="2" stroke-linecap="round" stroke-linejoin="round"/>
</svg>
