<svg width="54" height="54" viewBox="0 0 54 54" fill="none" xmlns="http://www.w3.org/2000/svg">
<g filter="url(#filter0_d_169_125)">
<circle cx="27" cy="26" r="24" fill="url(#paint0_linear_169_125)"/>
</g>
<g filter="url(#filter1_i_169_125)">
<path d="M26.5 35.1304C32.2983 35.1304 37 30.8475 37 25.5652C37 20.2829 32.2983 16 26.5 16C20.7017 16 16 20.2829 16 25.5652C16 28.0046 17.0022 30.2296 18.6518 31.9188C19.1558 32.4371 19.5152 33.1246 19.3355 33.8214C19.1388 34.5834 18.7706 35.291 18.2587 35.891C18.6683 35.9641 19.0838 36.0006 19.5 36C20.9957 36 22.3817 35.5339 23.5192 34.7397C24.4642 34.9948 25.4652 35.1304 26.5 35.1304Z" fill="#0BB68C"/>
</g>
<defs>
<filter id="filter0_d_169_125" x="0" y="0" width="54" height="54" filterUnits="userSpaceOnUse" color-interpolation-filters="sRGB">
<feFlood flood-opacity="0" result="BackgroundImageFix"/>
<feColorMatrix in="SourceAlpha" type="matrix" values="0 0 0 0 0 0 0 0 0 0 0 0 0 0 0 0 0 0 127 0" result="hardAlpha"/>
<feOffset dy="1"/>
<feGaussianBlur stdDeviation="1.5"/>
<feComposite in2="hardAlpha" operator="out"/>
<feColorMatrix type="matrix" values="0 0 0 0 0 0 0 0 0 0 0 0 0 0 0 0 0 0 0.25 0"/>
<feBlend mode="normal" in2="BackgroundImageFix" result="effect1_dropShadow_169_125"/>
<feBlend mode="normal" in="SourceGraphic" in2="effect1_dropShadow_169_125" result="shape"/>
</filter>
<filter id="filter1_i_169_125" x="15" y="14" width="25.4" height="25.4" filterUnits="userSpaceOnUse" color-interpolation-filters="sRGB">
<feFlood flood-opacity="0" result="BackgroundImageFix"/>
<feBlend mode="normal" in="SourceGraphic" in2="BackgroundImageFix" result="shape"/>
<feColorMatrix in="SourceAlpha" type="matrix" values="0 0 0 0 0 0 0 0 0 0 0 0 0 0 0 0 0 0 127 0" result="hardAlpha"/>
<feOffset dx="2" dy="2"/>
<feGaussianBlur stdDeviation="0.7"/>
<feComposite in2="hardAlpha" operator="arithmetic" k2="-1" k3="1"/>
<feColorMatrix type="matrix" values="0 0 0 0 0 0 0 0 0 0 0 0 0 0 0 0 0 0 0.25 0"/>
<feBlend mode="normal" in2="shape" result="effect1_innerShadow_169_125"/>
</filter>
<linearGradient id="paint0_linear_169_125" x1="27" y1="2" x2="59.702" y2="13.5872" gradientUnits="userSpaceOnUse">
<stop stop-color="#FFF6F2"/>
<stop offset="1" stop-color="#F2E9E5"/>
</linearGradient>
</defs>
</svg>
