<svg width="24" height="27" viewBox="0 0 24 27" fill="none" xmlns="http://www.w3.org/2000/svg">
<path d="M12 25.5836C6.87348 25.5836 4.31021 25.5836 2.71761 23.8141C1.125 22.0445 1.125 19.1964 1.125 13.5002C1.125 7.80412 1.125 4.95605 2.71761 3.18649C4.31021 1.41693 6.87348 1.41693 12 1.41693C17.1265 1.41693 19.6898 1.41693 21.2824 3.18649C22.875 4.95605 22.875 7.80412 22.875 13.5002C22.875 19.1964 22.875 22.0445 21.2824 23.8141C19.6898 25.5836 17.1265 25.5836 12 25.5836Z" stroke="#0BB68C" stroke-width="2" stroke-linecap="round" stroke-linejoin="round"/>
<path d="M7.1665 2.02083V10.8733C7.1665 12.3802 7.1665 13.1337 7.63343 13.4034C8.53764 13.9257 10.2337 12.1833 11.0392 11.6586C11.5064 11.3544 11.7399 11.2022 11.9998 11.2022C12.2597 11.2022 12.4933 11.3544 12.9605 11.6586C13.7659 12.1833 15.4621 13.9257 16.3663 13.4034C16.8332 13.1337 16.8332 12.3802 16.8332 10.8733V2.02083" stroke="#0BB68C" stroke-width="2" stroke-linecap="round" stroke-linejoin="round"/>
</svg>
