<svg width="22" height="23" viewBox="0 0 22 23" fill="none" xmlns="http://www.w3.org/2000/svg">
<path d="M5.35164 15.1267C3.87792 16.0042 0.01392 17.7959 2.36736 20.0381C3.51699 21.1333 4.79739 21.9167 6.40716 21.9167H15.5928C17.2026 21.9167 18.483 21.1333 19.6326 20.0381C21.986 17.7959 18.1221 16.0042 16.6483 15.1267C13.1925 13.0689 8.80749 13.0689 5.35164 15.1267Z" stroke="#0BB68C" stroke-width="2" stroke-linecap="round" stroke-linejoin="round"/>
<path d="M15.6875 5.77083C15.6875 8.35966 13.5889 10.4583 11 10.4583C8.41117 10.4583 6.3125 8.35966 6.3125 5.77083C6.3125 3.18199 8.41117 1.08333 11 1.08333C13.5889 1.08333 15.6875 3.18199 15.6875 5.77083Z" stroke="#0BB68C" stroke-width="2"/>
</svg>
