<svg width="28" height="27" viewBox="0 0 28 27" fill="none" xmlns="http://www.w3.org/2000/svg">
<path d="M1.729 13.5C1.729 7.71548 1.729 4.82322 3.52602 3.02619C5.32305 1.22917 8.21531 1.22917 13.9998 1.22917C19.7843 1.22917 22.6766 1.22917 24.4737 3.02619C26.2707 4.82322 26.2707 7.71548 26.2707 13.5C26.2707 19.2845 26.2707 22.1768 24.4737 23.9739C22.6766 25.7708 19.7843 25.7708 13.9998 25.7708C8.21531 25.7708 5.32305 25.7708 3.52602 23.9739C1.729 22.1768 1.729 19.2845 1.729 13.5Z" stroke="#0BB68C" stroke-width="2"/>
<path d="M11.4165 9.62501C11.4165 8.19827 12.5731 7.04167 13.9998 7.04167C15.4266 7.04167 16.5832 8.19827 16.5832 9.62501C16.5832 10.1393 16.4329 10.6185 16.1738 11.021C15.4018 12.2209 13.9998 13.3649 13.9998 14.7917V15.4375" stroke="#0BB68C" stroke-width="2" stroke-linecap="round"/>
<path d="M13.9897 19.9583H14.0014" stroke="#0BB68C" stroke-width="2" stroke-linecap="round" stroke-linejoin="round"/>
</svg>
