<svg width="23" height="25" viewBox="0 0 23 25" fill="none" xmlns="http://www.w3.org/2000/svg">
<path d="M6.17919 4.35909L5.09584 5.2376C3.45281 6.56998 2.63127 7.23618 2.19063 8.17551C1.75 9.11484 1.75 10.2 1.75 12.3702V14.7238C1.75 18.9834 1.75 21.1132 3.0192 22.4366C4.04088 23.5017 5.5638 23.7095 8.25 23.75V19.2564C8.25 18.208 8.25 17.6838 8.41493 17.2703C8.63483 16.719 9.05663 16.281 9.58748 16.0526C9.98572 15.8814 10.4904 15.8814 11.5 15.8814C12.5096 15.8814 13.0143 15.8814 13.4125 16.0526C13.9434 16.281 14.3652 16.719 14.5851 17.2703C14.75 17.6838 14.75 18.208 14.75 19.2564V23.75C17.4362 23.7095 18.9591 23.5017 19.9808 22.4366C21.25 21.1132 21.25 18.9834 21.25 14.7238V12.3702C21.25 10.2 21.25 9.11484 20.8094 8.17551C20.3687 7.23618 19.5472 6.56998 17.9041 5.2376L16.8208 4.35909C14.2648 2.28636 12.9868 1.25 11.5 1.25C10.0132 1.25 8.73519 2.28636 6.17919 4.35909Z" stroke="#7D7D7D" stroke-width="2" stroke-linejoin="round"/>
</svg>
