<svg width="27" height="27" viewBox="0 0 27 27" fill="none" xmlns="http://www.w3.org/2000/svg">
<path d="M8.17919 5.35909L7.09584 6.2376C5.45281 7.56998 4.63127 8.23618 4.19063 9.17551C3.75 10.1148 3.75 11.2 3.75 13.3702V15.7238C3.75 19.9834 3.75 22.1132 5.0192 23.4366C6.04088 24.5017 7.5638 24.7095 10.25 24.75V20.2564C10.25 19.208 10.25 18.6838 10.4149 18.2703C10.6348 17.719 11.0566 17.281 11.5875 17.0526C11.9857 16.8814 12.4904 16.8814 13.5 16.8814C14.5096 16.8814 15.0143 16.8814 15.4125 17.0526C15.9434 17.281 16.3652 17.719 16.5851 18.2703C16.75 18.6838 16.75 19.208 16.75 20.2564V24.75C19.4362 24.7095 20.9591 24.5017 21.9808 23.4366C23.25 22.1132 23.25 19.9834 23.25 15.7238V13.3702C23.25 11.2 23.25 10.1148 22.8094 9.17551C22.3687 8.23618 21.5472 7.56998 19.9041 6.2376L18.8208 5.35909C16.2648 3.28636 14.9868 2.25 13.5 2.25C12.0132 2.25 10.7352 3.28636 8.17919 5.35909Z" stroke="#7D7D7D" stroke-width="2" stroke-linejoin="round"/>
</svg>
