<svg width="32" height="31" viewBox="0 0 32 31" fill="none" xmlns="http://www.w3.org/2000/svg">
<path d="M3.729 15.5C3.729 9.71548 3.729 6.82322 5.52602 5.02619C7.32305 3.22917 10.2153 3.22917 15.9998 3.22917C21.7843 3.22917 24.6766 3.22917 26.4737 5.02619C28.2707 6.82322 28.2707 9.71548 28.2707 15.5C28.2707 21.2845 28.2707 24.1768 26.4737 25.9739C24.6766 27.7708 21.7843 27.7708 15.9998 27.7708C10.2153 27.7708 7.32305 27.7708 5.52602 25.9739C3.729 24.1768 3.729 21.2845 3.729 15.5Z" stroke="#7D7D7D" stroke-width="2"/>
<path d="M13.4165 11.625C13.4165 10.1983 14.5731 9.04167 15.9998 9.04167C17.4266 9.04167 18.5832 10.1983 18.5832 11.625C18.5832 12.1393 18.4329 12.6185 18.1738 13.021C17.4018 14.2209 15.9998 15.3649 15.9998 16.7917V17.4375" stroke="#7D7D7D" stroke-width="2" stroke-linecap="round"/>
<path d="M15.9897 21.9583H16.0014" stroke="#7D7D7D" stroke-width="2" stroke-linecap="round" stroke-linejoin="round"/>
</svg>
