<svg width="26" height="25" viewBox="0 0 26 25" fill="none" xmlns="http://www.w3.org/2000/svg">
<path d="M7.35164 16.1267C5.87792 17.0042 2.01392 18.7959 4.36736 21.0381C5.51699 22.1333 6.79739 22.9167 8.40716 22.9167H17.5928C19.2026 22.9167 20.483 22.1333 21.6326 21.0381C23.986 18.7959 20.1221 17.0042 18.6483 16.1267C15.1925 14.0689 10.8075 14.0689 7.35164 16.1267Z" stroke="#7D7D7D" stroke-width="2" stroke-linecap="round" stroke-linejoin="round"/>
<path d="M17.6875 6.77083C17.6875 9.35966 15.5889 11.4583 13 11.4583C10.4112 11.4583 8.3125 9.35966 8.3125 6.77083C8.3125 4.18199 10.4112 2.08333 13 2.08333C15.5889 2.08333 17.6875 4.18199 17.6875 6.77083Z" stroke="#7D7D7D" stroke-width="2"/>
</svg>
