<svg width="31" height="31" viewBox="0 0 31 31" fill="none" xmlns="http://www.w3.org/2000/svg">
<g clip-path="url(#clip0_144_571)">
<path d="M21.9604 1.16855L19.03 4.09902L26.901 11.9701L29.8315 9.03965C31.3452 7.52598 31.3452 5.07383 29.8315 3.56016L27.446 1.16855C25.9323 -0.345118 23.4801 -0.345118 21.9665 1.16855H21.9604ZM17.6616 5.46738L3.54812 19.5869C2.91843 20.2166 2.45827 20.9977 2.20398 21.8514L0.0606155 29.1352C-0.0907517 29.6498 0.0485062 30.2008 0.423897 30.5762C0.799287 30.9516 1.35026 31.0908 1.85886 30.9455L9.14265 28.8021C9.99636 28.5479 10.7774 28.0877 11.4071 27.458L25.5327 13.3385L17.6616 5.46738Z" fill="#0BB68C"/>
</g>
<defs>
<clipPath id="clip0_144_571">
<rect width="31" height="31" fill="white"/>
</clipPath>
</defs>
</svg>
