<svg width="54" height="54" viewBox="0 0 54 54" fill="none" xmlns="http://www.w3.org/2000/svg">
<g filter="url(#filter0_d_243_17)">
<circle cx="27" cy="26" r="24" fill="url(#paint0_linear_243_17)"/>
</g>
<g filter="url(#filter1_i_243_17)">
<path d="M16.15 26.585C16.6215 26.921 17.254 27.0832 17.875 27.0832C18.5075 27.0832 19.1285 26.921 19.6 26.585C20.313 26.0521 20.75 25.2296 20.75 24.268C20.75 25.2296 21.1755 26.0521 21.9 26.585C22.3715 26.921 23.004 27.0832 23.625 27.0832C24.2575 27.0832 24.8785 26.921 25.35 26.585C26.063 26.0521 26.5 25.2296 26.5 24.268C26.5 25.2296 26.9255 26.0521 27.65 26.585C28.1215 26.921 28.754 27.0832 29.3865 27.0832C30.0075 27.0832 30.6285 26.921 31.1 26.585C31.813 26.0521 32.25 25.2296 32.25 24.268C32.25 25.2296 32.6755 26.0521 33.4 26.585C33.8715 26.921 34.504 27.0832 35.125 27.0832C35.7575 27.0832 36.3785 26.921 36.85 26.585C37.5745 26.0521 38 25.2296 38 24.268V23.1095L34.55 15H19.6L15 23.1095V24.268C15 25.2296 15.4255 26.0521 16.15 26.585ZM18.45 37H24.2V31.2075H28.8V37H34.55V28.8905C34.1245 28.8325 33.722 28.6356 33.4 28.3923C32.6755 27.871 32.25 27.5466 32.25 26.585C32.25 27.5466 31.813 27.871 31.1 28.3923C30.6285 28.7399 30.0075 28.8905 29.3865 28.9021C28.754 28.9021 28.1215 28.7399 27.65 28.3923C26.9255 27.871 26.5 27.5466 26.5 26.585C26.5 27.5466 26.063 27.871 25.35 28.3923C24.8785 28.7399 24.2575 28.8905 23.625 28.9021C23.004 28.9021 22.3715 28.7399 21.9 28.3923C21.1755 27.871 20.75 27.5466 20.75 26.5735C20.75 27.5466 20.313 27.871 19.6 28.3923C19.2665 28.6356 18.8755 28.8325 18.45 28.9021V37Z" fill="#0BB68C"/>
</g>
<defs>
<filter id="filter0_d_243_17" x="0" y="0" width="54" height="54" filterUnits="userSpaceOnUse" color-interpolation-filters="sRGB">
<feFlood flood-opacity="0" result="BackgroundImageFix"/>
<feColorMatrix in="SourceAlpha" type="matrix" values="0 0 0 0 0 0 0 0 0 0 0 0 0 0 0 0 0 0 127 0" result="hardAlpha"/>
<feOffset dy="1"/>
<feGaussianBlur stdDeviation="1.5"/>
<feComposite in2="hardAlpha" operator="out"/>
<feColorMatrix type="matrix" values="0 0 0 0 0 0 0 0 0 0 0 0 0 0 0 0 0 0 0.25 0"/>
<feBlend mode="normal" in2="BackgroundImageFix" result="effect1_dropShadow_243_17"/>
<feBlend mode="normal" in="SourceGraphic" in2="effect1_dropShadow_243_17" result="shape"/>
</filter>
<filter id="filter1_i_243_17" x="15" y="15" width="24" height="23" filterUnits="userSpaceOnUse" color-interpolation-filters="sRGB">
<feFlood flood-opacity="0" result="BackgroundImageFix"/>
<feBlend mode="normal" in="SourceGraphic" in2="BackgroundImageFix" result="shape"/>
<feColorMatrix in="SourceAlpha" type="matrix" values="0 0 0 0 0 0 0 0 0 0 0 0 0 0 0 0 0 0 127 0" result="hardAlpha"/>
<feOffset dx="1" dy="1"/>
<feGaussianBlur stdDeviation="0.5"/>
<feComposite in2="hardAlpha" operator="arithmetic" k2="-1" k3="1"/>
<feColorMatrix type="matrix" values="0 0 0 0 0 0 0 0 0 0 0 0 0 0 0 0 0 0 0.25 0"/>
<feBlend mode="normal" in2="shape" result="effect1_innerShadow_243_17"/>
</filter>
<linearGradient id="paint0_linear_243_17" x1="27" y1="2" x2="59.702" y2="13.5872" gradientUnits="userSpaceOnUse">
<stop stop-color="#FFF6F2"/>
<stop offset="1" stop-color="#F2E9E5"/>
</linearGradient>
</defs>
</svg>
