<svg width="34" height="34" viewBox="0 0 34 34" fill="none" xmlns="http://www.w3.org/2000/svg">
<path d="M16.9911 26.095C16.6019 26.3542 16.1963 26.5879 15.7769 26.7947V32.7917C15.7769 33.1138 15.9048 33.4227 16.1325 33.6504C16.3602 33.8781 16.6691 34.006 16.9911 34.006C17.3132 34.006 17.622 33.8781 17.8498 33.6504C18.0775 33.4227 18.2054 33.1138 18.2054 32.7917V26.7947C17.786 26.5879 17.3804 26.3542 16.9911 26.095Z" fill="#0BB68C"/>
<path d="M27.6402 7.07932C26.7617 4.98202 25.2831 3.19109 23.39 1.93154C21.4969 0.671988 19.2738 0 17 0C14.7262 0 12.5031 0.671988 10.61 1.93154C8.71688 3.19109 7.23825 4.98202 6.35985 7.07932C4.46968 7.95503 2.86786 9.35072 1.74164 11.1032C0.615423 12.8557 0.01135 14.8926 4.36373e-05 16.9757C-0.0166527 22.868 4.76003 27.7828 10.6463 27.9346C12.4269 27.9811 14.1917 27.5897 15.7857 26.7947V21.3987L9.17091 18.0929C8.88268 17.9487 8.6635 17.696 8.5616 17.3903C8.45969 17.0846 8.4834 16.7509 8.62752 16.4627C8.77164 16.1745 9.02435 15.9553 9.33007 15.8534C9.63579 15.7515 9.96946 15.7752 10.2577 15.9193L15.7857 18.6848V10.9347C15.7857 10.6126 15.9136 10.3038 16.1414 10.076C16.3691 9.84832 16.678 9.72038 17 9.72038C17.322 9.72038 17.6309 9.84832 17.8586 10.076C18.0863 10.3038 18.2143 10.6126 18.2143 10.9347V15.042L23.7423 12.2764C23.885 12.2051 24.0404 12.1625 24.1996 12.1512C24.3587 12.1399 24.5186 12.1601 24.6699 12.2105C24.8213 12.261 24.9613 12.3408 25.0818 12.4453C25.2023 12.5499 25.3011 12.6771 25.3725 12.8198C25.4438 12.9626 25.4864 13.1179 25.4977 13.2771C25.509 13.4363 25.4889 13.5961 25.4384 13.7475C25.3879 13.8988 25.3082 14.0388 25.2036 14.1593C25.0991 14.2799 24.9718 14.3787 24.8291 14.45L18.2143 17.7559V26.7947C19.7227 27.547 21.3858 27.9373 23.0714 27.9346H23.3537C29.24 27.7828 34.0167 22.8711 34 16.9788C33.9898 14.895 33.3862 12.8572 32.2599 11.104C31.1336 9.35085 29.5311 7.9548 27.6402 7.07932Z" fill="#0BB68C"/>
</svg>
