<svg width="77" height="77" viewBox="0 0 77 77" fill="none" xmlns="http://www.w3.org/2000/svg">
<g filter="url(#filter0_d_255_2)">
<circle cx="38.5" cy="37.5" r="35.5" fill="url(#paint0_linear_255_2)"/>
</g>
<g filter="url(#filter1_i_255_2)">
<path d="M39.9625 21.3277C39.8745 21.225 39.7653 21.1424 39.6423 21.0859C39.5194 21.0293 39.3857 21 39.2504 21C39.1151 21 38.9814 21.0293 38.8584 21.0859C38.7355 21.1424 38.6263 21.225 38.5383 21.3277C36.0648 24.2207 28 34.2223 28 41.6309C28 48.5348 32.3469 52.8809 39.25 52.8809C46.1531 52.8809 50.5 48.5348 50.5 41.6309C50.5 34.2223 42.4352 24.2207 39.9625 21.3277ZM40.5 48.8184C40.3498 48.8187 40.2018 48.783 40.0683 48.7141C39.9349 48.6453 39.8199 48.5455 39.7331 48.423C39.6462 48.3005 39.5901 48.1589 39.5694 48.0102C39.5487 47.8615 39.564 47.7099 39.6141 47.5684C39.678 47.3837 39.7986 47.2238 39.9586 47.1116C40.1187 46.9994 40.31 46.9405 40.5055 46.9434C41.7464 46.9407 42.9357 46.4465 43.8132 45.5691C44.6907 44.6916 45.1848 43.5023 45.1875 42.2613C45.1846 42.0659 45.2435 41.8745 45.3557 41.7145C45.4679 41.5544 45.6278 41.4339 45.8125 41.3699C45.9541 41.3199 46.1056 41.3046 46.2543 41.3253C46.403 41.346 46.5446 41.4021 46.6671 41.4889C46.7896 41.5758 46.8895 41.6907 46.9583 41.8242C47.0271 41.9577 47.0628 42.1057 47.0625 42.2559C47.0606 43.9958 46.3686 45.6639 45.1383 46.8942C43.908 48.1245 42.2399 48.8165 40.5 48.8184Z" fill="#0085FF"/>
</g>
<defs>
<filter id="filter0_d_255_2" x="0" y="0" width="77" height="77" filterUnits="userSpaceOnUse" color-interpolation-filters="sRGB">
<feFlood flood-opacity="0" result="BackgroundImageFix"/>
<feColorMatrix in="SourceAlpha" type="matrix" values="0 0 0 0 0 0 0 0 0 0 0 0 0 0 0 0 0 0 127 0" result="hardAlpha"/>
<feOffset dy="1"/>
<feGaussianBlur stdDeviation="1.5"/>
<feComposite in2="hardAlpha" operator="out"/>
<feColorMatrix type="matrix" values="0 0 0 0 0 0 0 0 0 0 0 0 0 0 0 0 0 0 0.25 0"/>
<feBlend mode="normal" in2="BackgroundImageFix" result="effect1_dropShadow_255_2"/>
<feBlend mode="normal" in="SourceGraphic" in2="effect1_dropShadow_255_2" result="shape"/>
</filter>
<filter id="filter1_i_255_2" x="28" y="21" width="22.5" height="35.8809" filterUnits="userSpaceOnUse" color-interpolation-filters="sRGB">
<feFlood flood-opacity="0" result="BackgroundImageFix"/>
<feBlend mode="normal" in="SourceGraphic" in2="BackgroundImageFix" result="shape"/>
<feColorMatrix in="SourceAlpha" type="matrix" values="0 0 0 0 0 0 0 0 0 0 0 0 0 0 0 0 0 0 127 0" result="hardAlpha"/>
<feOffset dy="4"/>
<feGaussianBlur stdDeviation="2"/>
<feComposite in2="hardAlpha" operator="arithmetic" k2="-1" k3="1"/>
<feColorMatrix type="matrix" values="0 0 0 0 0 0 0 0 0 0 0 0 0 0 0 0 0 0 0.25 0"/>
<feBlend mode="normal" in2="shape" result="effect1_innerShadow_255_2"/>
</filter>
<linearGradient id="paint0_linear_255_2" x1="21.5" y1="15.5" x2="71.8741" y2="17.195" gradientUnits="userSpaceOnUse">
<stop stop-color="#FFF6F2"/>
<stop offset="1" stop-color="#ECE2DE"/>
</linearGradient>
</defs>
</svg>
